Project VrevalDB {
  database_type: 'MySql'
}

// Beziehungen müssen geprüft werden. (many-to-many, many-to-one)

//User auf der Plattform
Table users {
  id integer [pk, increment]
  name varchar [not null]
  username varchar [not null, unique]
  email varchar [not null, unique]
  created_at timestamp
  user_activity_last timestamp
}

//Pivot: Zuordnung Projekte zu User mit Projekt Permission
Table user_project {
  user_id integer 
  project_id integer
  permission_id varchar
}

//Project Bearbeitung
Table permissions_project {
  id integer [pk, increment]
  name varchar

  Note: '''Permissions:
Erstellen/Ändern/Löschen:
Project, Modelle, Checkpoints, Overview, Forms, Scenario, Playlist, Sessions, Evaluation, ParticipantInvitation, Results 
Upload/Download:
Modelle, Checkpoints, Results'''
}

Table reward_system{
  id integer
  user_id integer
  score integer
}
Ref: reward_system.user_id > users.id

//Alle Projekte auf der Plattform
//Project kann von Admin kopiert werden (auswahl, was kopiert werden soll)
Table projects {
  id integer [pk, increment]
  name varchar [not null]
  description varchar
  model_total double [Note: 'SUM']
  checkpoint_evaluation_total integer
  checkpoint_information_total integer [Note: 'Information-Checkpoints']
  participant_total integer
  membership_id integer
  created_at timestamp
  project_activity_last timestamp
}

//Permission für Global Projektbearbeitung
Table permission_membership {
    id integer [pk, increment]
  types varchar [note: 'Student, Trial, Personal, Plus, Pro, Enterprise']
  modeluploadsize_max double
  checkpoint_evaluation_max integer
  checkpoint_information_max integer
  checkpoint_gates_max integer
  patricipant_max integer
  savelimit_time_max integer [note: 'in days']
  history boolean [note: 'kann auf History zurück gegriffen werden und wieoft [täglich in der Nacht, wenn veränderungen stattgefunden haben] wird History erstellt']

  Note: 'Grundgedanke: Zusatzfunktionen/ Zusatzspeicher können für ein Projekt dazu bestellt werden. Dadurch ist der User unabhängig vom Projekt.'
}
Ref: user_project.user_id > users.id
Ref: user_project.project_id > projects.id
Ref: user_project.permission_id > permissions_project.id
Ref: projects.membership_id > permission_membership.id

//
//SURVEY Sequence ODER Chronology: Survey Layout (Scenario, Playlist, Session, Evaluation)
//

Table evaluations{
  id integer [pk]
  name varchar
  description varchar
  project_id integer
  language_interface language
}
enum language{
  English
  German
}
Ref: evaluations.project_id > projects.id

Table evaluation_playlist{
  project_id integer
  evaluation_id integer
  playlist_id integer
  position integer

  Indexes {
    (project_id, playlist_id, evaluation_id) [pk]
  }

  Note: 'This is a many-to-many relation that also stores the order in which a scenario should be activated by assigning each row a position in an ordered list.'
}
Ref: evaluation_playlist.project_id > projects.id
Ref: evaluation_playlist.playlist_id > playlists.id
Ref: evaluation_playlist.evaluation_id > evaluations.id


Table playlists {
  id integer [pk, increment]
  name varchar [not null]
  description varchar
  project_id integer

}
Ref: playlists.project_id > projects.id

Table playlist_scenarios {
  project_id integer
  playlist_id integer
  scenario_id integer
  position integer

  Indexes {
    (project_id, playlist_id, scenario_id) [pk]
  }

  Note: 'This is a many-to-many relation that also stores the order in which a scenario should be activated by assigning each row a position in an ordered list.'
}
Ref: playlist_scenarios.project_id > projects.id
Ref: playlist_scenarios.playlist_id > playlists.id
Ref: playlist_scenarios.scenario_id > scenarios.id


Table scenarios {
  id integer [pk, increment]
  name varchar [not null]
  description varchar
  project_id integer
  model_groupes_id integer
  checkpoints_gate_id integer
  behaviour_id integer
  execution_id integer
  position integer
}
Ref: scenarios.project_id > projects.id
Ref: scenarios.behaviour_id > behaviour.id
Ref: scenarios.checkpoints_gate_id > ch_gate_groups.id
Ref: scenarios.model_groupes_id > model_groupes.id
Ref: scenarios.execution_id > execution.id

Table execution{
  id integer
  name varchar
  action jsonb
  
  Note: 'Regelt, ob ein Scenario nach einem Abbruch wiederholt werden kann, wenn es bereits gestartet wurde, jedoch über "nächste Aufgabe / Next" nicht beendet wurde'
}

Table checkpoints_form {
  id integer
  project_id integer
  scenario_id Interaktion
  model_groupes_id integer
  checkpoints_evalaluation_id integer
  checkpoints_gate_id integer
  checkpoint_information_id integer
  form_id integer
  form_open_by_arrival bool [Note: 'Form wird automatisch bei Ankunft geöffnet. Anklicken des Checkpoints nicht nötig.']
  behaviour_id integer
  position integer [Note: 'Reihenfolge']
  
  Indexes {
    (project_id, checkpoints_evalaluation_id, form_id) [pk]
  }
Note: 'This is a many-to-many relation that also stores the order in which a checkpoint should be activated by assigning each row a position in an ordered list.'
}
Ref: checkpoints_form.project_id > projects.id
Ref: checkpoints_form.scenario_id > scenarios.id
Ref: checkpoints_form.model_groupes_id > model_groupes.id
Ref: checkpoints_form.checkpoints_evalaluation_id > checkpoints.id
Ref: checkpoints_form.checkpoints_gate_id > ch_gate_groups.id
Ref: checkpoints_form.checkpoint_information_id > ch_information_groupes.id
Ref: checkpoints_form.form_id > forms.id
Ref: checkpoints_form.behaviour_id > behaviour.id

// Sessions müssen die Anfang und Endzeiten jedes Checkpionts, Scenarios, Playlist und Evaluationsgruppe speichern. 
// Ziel ist es, dass eine Statistik aufgestellt werden kann, wie lange und wo Versuchsteilnehmer an einer Aufgabe zeitlich gebraucht haben)
Table session_logs {
  id integer [pk, increment]
  evalutation_code_id integer
  session_id integer
  eva_group_id integer
  created_at timestamp
  content varchar
  category_id integer
  
  Note: 'All relevant events will have their own log entry'
}
Ref: session_logs.evalutation_code_id > evaluation_code.id
Ref: session_logs.eva_group_id > EG.id
Ref: session_logs.category_id > log_categories.id

Table LogsIdea{
  id integer

  Note: ''' ADDitional for Log:
  Jeder Klick, welcher eine Auswahl/Aktion auslöst, wird getrackt.
  Damit können Entscheidungsänderungen nachvollzogen werden.
        '''
}
Ref: LogsIdea.id - session_logs.id

Table log_categories {
  id integer [pk, increment]
  name varchar
  description varchar
  
  Note: 'Examples: Progress, Exception, Breaks, Aborts, Sickness, Not found, Start, End etc.'
}


//
//SURVEY CONTENT
//

//Checkpoints/Information/Gates
Table checkpoints {
  id integer [pk, increment]
  project_id integer
  description varchar
  created_at timestamp
  
  //Revit (CAD) Import
  RevitElementID integer
  
  Location point
  SpawnDistance vector [Note: 'Entfernung Checkpoint zu Participant'] //Default Value?
  Perimeter_visible double [Note: 'Innerhalb Perimeter Sichtbar.'] //Default Value?
  Perimeter_Boundary double [Note: 'BoundaryBox für Teleportation to next Checkpoint for Wayfinding']
  IdentityData_Name varchar  [Default: 'RandomPlaceNames', not null] //Default Value?

  SurveyPoint point //Default Value?
  BasePoint point //Default Value?
  ProjectRotation double //Default Value?
  Family checkpoint_family [Note: 'Der Family-Name, nachdem in Revit gesucht wird, muss in Dynamo überschrieben werden können. Durch Dynamo wird Family zugeordnet.']
  Type checkpoint_type [Note: 'Der Typen-Name, nachdem in Revit gesucht wird, muss in Dynamo überschrieben werden können. Durch Dynamo wird Type zugeordnet']
}
enum checkpoint_family{
  Checkpoint
}
enum checkpoint_type{
  Evaluation
  Information
  Gates
}
Ref: checkpoints.project_id > projects.id
Ref: checkpoints.Type < behaviour.project_id


//Modelle im Projekt
Table models {
  id integer [pk, increment]
  project_id integer
  type model_type [not null]
  url varchar [note: 'Download link for the actual geometry file. For our purposes this file will be uploaded as unity asset bundle.']
  name varchar [not null]
  size double [note: 'in MB']
  description varchar
  
  Note: 'Default Content Space 1: WhiteSpace (Hub)'
}
//Modelltypen, welche in den Scenarien oder in Aufgaben zugeordnet werden können
enum model_types{
  ARCH_main_model [note: 'Main Model']
  ARCH_design_option [note: 'Submodel']
  ARCH_scenery [note: 'Part Submodel']
}
Ref: models.project_id > projects.id

Table model_groupes{
  id integer
  project_id integer

  ARCH_main_model_id integer [default: "WhiteSpace"]
  ARCH_design_option_id integer [default: "none"]
  ARCH_scenery_id integer  [default: "none"]

Note: 'Sobald ein Model ausgewählt wurde, kann dieses in einer anderen Kategorie nicht mehr ausgewählt werden.'
}
Ref: model_groupes.project_id > projects.id
Ref: model_groupes.ARCH_main_model_id > models.id
Ref: model_groupes.ARCH_design_option_id > models.id
Ref: model_groupes.ARCH_scenery_id > models.id

Table ch_information_groupes{
  id integer
  group_information_id integer
  project_id integer

  checkpoints_information_id integer
  
}
Ref: ch_information_groupes.project_id > projects.id
Ref: ch_information_groupes.checkpoints_information_id > checkpoints.id
Ref: ch_information_groupes.group_information_id > groups_information.id

Table groups_information{
  id integer
  name varchar
  project_id integer
}
Ref: groups_information.project_id > projects.id

Table camera_path{
  id integer
  name varchar
  project_id integer
  
  list_translation varchar [note: 'Liste von Punkten, welche mit einer Kamera abgefahren werden']
}
Ref: camera_path.project_id > projects.id

Table vioce_record{
  id integer
  project_id integer
  file varchar
}
Ref: vioce_record.project_id > projects.id

//muss noch ausgearbeitet werden. wie modellgruppen.
Table ch_gate_groups{
  id integer
  group_gate_id integer
  project_id integer
  
  checkpoint_id varchar [note: 'List of Gates. IdentityData_Name = Gate_name. Position by List Rank']

  Note: 'Filter by Type'
}
Ref: ch_gate_groups.id > projects.id
Ref: ch_gate_groups.group_gate_id > groups_gate.id
Ref: ch_gate_groups.checkpoint_id > checkpoints.id

Table groups_gate{
  id integer
  name varchar
  project_id integer
}
Ref: groups_gate.project_id > projects.id

Table behaviour{
  id integer [pk]
  name varchar [not null]
  project_id integer
  
  voice_record bool [note: 'Für Kommentiertes Verhalten während der Aufgabe. Aufnahme nur, wenn Microfon Sound empfängt, sonst stopp.']
  voice_record_start integer
  
  voice_narrator_start integer [Note: 'Start in ms nach Ankunft am Checkpoint.']
  
  answer_time_min integer [default: 0, note: '0 = infinite. min time in sec to finish task. MIN: after time is up, active of next button.']
  answer_time_max integer [default: 0, note: '0 = infinite. max time in sec to finish task. MAX: after teleport to next checkpoint, if checkpoint is not found or answer time is up']
  answer_time_start integer
  
  walking boolean
  teleporting boolean
  flying boolean
  gates_enable boolean [note:'Fahrstuhl, Teleporter-Gates']
  movement_speed1_id integer [default: 1, Note:'Speed kann in UI umgestellt werden']
  movement_speed2_id integer [default: 2, Note:'Speed kann in UI umgestellt werden']
  movement_speed3_id integer [default: 3, Note:'Speed kann in UI umgestellt werden']
  
  walking_distance_max double [default: 0, Note: 'Unit: meter']
  walking_perimeter_boundary_max double [default:0, Note: 'Unit: meter. Startpunkt: checkpoints.Location + Perimeter Boundary = Max_Perimeter for walking']
  
  tracking boolean
  tracking_start action_start
  
  next_behaviour_id integer
  
  Note: 'Standart Behaviour jsonb kann der Behaviour Liste hinzugefügt werden, wenn nicht mehr vorhanden. Import/Export der Behaviour über json möglich'
}
Ref: behaviour.project_id > projects.id
Ref: behaviour.movement_speed1_id > movement_speed.id
Ref: behaviour.movement_speed2_id > movement_speed.id
Ref: behaviour.movement_speed3_id > movement_speed.id
Ref: behaviour.next_behaviour_id - next_checkpoint.id
//Link: start time + voice zu action_start

enum action_start{
  by_arrival_at_checkpoint
  between_two_checkpoints [note: 'next_behaviour must be walking to next Checkpoint']
}

Table movement_speed{
  id integer [pk]
  name varchar [not null]
  speed double [Note: 'Abhänging von Gaming Engine']
}

Table next_checkpoint{
  id integer [pk]
  name varchar
  action action_type [Note:'behaviour nach "next" in client-UI']
}
enum action_type{
  teleport [Note: 'Zum nächsten Checkpoint teleportieren']
  walk [Note: 'Zum nächsten Checkpoint laufen.']
}


//
//Resultate
//


Table results_form {
  id integer [pk, increment]
  type_id integer
  evaluation_code_id integer

  evaluation_group_id integer
  playlist_id integer

  scenario_id integer
  scenario_evaluation_id integer
  
  form_id integer
  form_field_id integer
  form_template_id integer
  
  data jsonb
  
  start_time timestamp
  end_time timestamp
  last_edited timestamp
}
Ref: results_form.type_id > result_types.id
Ref: results_form.evaluation_code_id > evaluation_code.id
Ref: results_form.scenario_id > scenarios.id
Ref: results_form.form_id > forms.id
Ref: results_form.form_field_id > form_fields.id
Ref: results_form.form_template_id > form_templates.id

Table results_trajectory{
  id integer [pk, increment]
  type_id integer
  evaluation_code_id integer

  evaluation_group_id integer
  playlist_id integer

  scenario_id integer
  scenario_evaluation_id integer

  data jsonb
  
  start_time timestamp
  end_time timestamp
  last_edited timestamp
}
Ref: results_trajectory.type_id > result_types.id
Ref: results_trajectory.evaluation_code_id > evaluation_code.id
Ref: results_trajectory.scenario_id > scenarios.id

Table result_types{
  id integer
  name result_type
}
enum result_type{
  Test_Evaluation_DATA
  Evaluation_DATA
  }

//
//Evaluation - Patricipant - Durchführung
//

Table evaluation_participation_groups as EG{
  id integer [pk, increment]
  name varchar [not null]
  description varchar
  project_id integer
  evaluation_id integer
}
Ref: EG.project_id > projects.id
Ref: EG.evaluation_id > evaluations.id

Table evaluation_code_progress{
  id integer
  code_id integer
  session_log_id integer
  progress varchar
  
  Note: 'Wie das genau geregelt ist, weiß ich leider nicht. Wann ist ein Code "verbrannt"'
}
Ref: evaluation_code_progress.code_id > evaluation_code.id
Ref: evaluation_code_progress.session_log_id > session_logs.id

Table evaluation_code{
  id integer
  code varchar [unique, Note: 'Project_ID+RandomCode - unique durch RandomCode. Filter der Ergebnisse nach evaluations, Playlist, scenarios, Forms, form_fields']
}

Table participant_code_evagroup{
  participant_project_id integer [note: 'can be empty']
  code_id integer
  evaluation_participation_groups_id integer
  
  Note: '''
  Unique Einordnung von Participant && Code && Evaluation_participation_groups.
  Wenn ein Code einer Evaluation_participation_groups zugeordnet ist, ist dieser "verbraucht".
  Zuordnung durch Participant Information: Gender, Age
  '''
}
Ref: participant_code_evagroup.participant_project_id > participant_project.id
Ref: participant_code_evagroup.code_id > evaluation_code.id
Ref: participant_code_evagroup.evaluation_participation_groups_id > evaluation_participation_groups.id

//Möglichkeit, dass Participants von Users zu Participants kopiert werden.
Table participants {
  id integer [pk, increment, Note:'nicht zurückführbarer Hash, damit Annonymität für Eva-Gruppen erhalten bleibt.']
  title varchar [Note: 'Herr / Frau']
  forename varchar
  surname varchar
  email varchar
  gender_id gender
  year_birth integer
//nationality_id integer

Note: '''
Title, forename, surname um personalisierte Einladungsemails / Texte zu erstellen.
'''
}
enum gender{
  male
  female
}
//Ref: participants.nationality_id > participant_nationality.id

//Table participant_nationality{
//  id integer
//  country varchar
//}

Table participant_project{
  id integer
  project_id integer
  participant_id integer
  participant_project_code varchar [note: 'code für email einladung mit link direkt zur durchführung einer evaluation eines projektes']
}
Ref: participant_project.project_id > projects.id
Ref: participant_project.participant_id > participants.id

Table evaluation_address_book as evb{
  id integer [pk]
  name varchar [not null]
  label varchar
  note varchar
}

//Zuordnung participants Users Adressbuch
Table user_evaluation_address_book as user_evb{
  user_id integer
  evb_id integer
  participant_id integer
}
Ref: user_evb.user_id > users.id
Ref: user_evb.evb_id > evb.id
Ref: user_evb.participant_id > participants.id


//
//Formulare für Interaktion und Abfragen mit dem Participant
//


Table forms {
  id integer [pk, increment]
  name varchar
  project_id integer
  type form_type

  description varchar
  form_field_id integer

  position integer
  
  Note: 'Import/Export der erstellten Forms über json möglich'
}
enum form_type {
  checkpoint
  information
}
Ref: forms.project_id > projects.id
Ref: forms.form_field_id > form_fields.id
Ref: forms.form_field_id > info_fields.id

//pivot
Table form_fields {
  id integer [pk, increment]
  project_id integer
  name varchar
  form_template_id integer
  behaviour_id integer
  
  position integer
}
Ref: form_fields.behaviour_id > behaviour.id
Ref: form_fields.form_template_id > form_templates.id
Ref: form_fields.project_id > projects.id

//
//Abfrage-Typen
//

Table form_templates{
  id integer
  name varchar
  project_id integer
  position integer
  answer_requiered boolean
  
  form_types_id integer
}
Ref: form_templates.project_id > projects.id

Table questionnaire_content as qc{
  id integer
  project_id integer
  
  type_id integer
  content varchar [Note: 'left to right with -Trennung- for multiple used input in UI. Can be Text or Vioce(link to audiofile)']
}
Ref: qc.project_id > projects.id
Ref: qc.type_id > questionnaire_content_type.id

Table questionnaire_content_type{
  id integer
  type type_content
}
enum type_content{
  question
  subquestion
  header
  text
  voice
  scale_label [Note: 'left to right with -Trennung- for multiple used scales in questionaire: see "questionnaire_content.content"']
  label [Note: 'left to right with -Trennung- for multiple used labels in questionaire: see "questionnaire_content.content"']
}

//

Table text{
  id integer
  name varchar
  project_id integer
  
  header_id integer
  text_id integer [Note: 'Text kann mit Formatierung gespeichert werden (Fett, Kursiv, Normal)']
  voice_id integer
}
Ref: text.project_id > projects.id
Ref: text.id > form_templates.form_types_id
Ref: text.id > info_templates.form_types_id
Ref: text.header_id > qc.id
Ref: text.text_id > qc.id
Ref: text.voice_id > qc.id

Table Break{
  id integer
  name varchar [default: 'Next']
  project_id integer [default: 'all projects']
  
  Note: 'Im Handheld muss "weiter" ausgewählt werden, um den nächsten Inhalt aufzurufen'
}
Ref: Break.project_id > projects.id
Ref: Break.id > form_templates.form_types_id

Table questionnaire_choice{
  // Single/MultiChoice
  id integer
  project_id integer

  question_id integer
  subquestion_id integer

  //Antwortauswahlliste
  label_id integer

  answer_style_id integer //Auswahl zwischen Zeichen, Num, Bilder, Modellen
  answer_multiple boolean
  answer_others_text_id integer [Note: 'Wenn Ausgefühlt, dann auswählbar.']
  
  //Generell:
  Note: 'Leerzeichen am Anfang oder am Ende von String werden automatisch gelöscht.'
}
Ref: questionnaire_choice.project_id > projects.id
Ref: questionnaire_choice.id > form_templates.form_types_id
Ref: questionnaire_choice.answer_style_id > graphic_style.id
Ref: questionnaire_choice.label_id > qc.id
Ref: questionnaire_choice.question_id > qc.id
Ref: questionnaire_choice.subquestion_id > qc.id
Ref: questionnaire_choice.answer_others_text_id > qc.id

Table questionnaire_rating{
  //Semantic Differential
  id integer
  project_id integer
  
  question_id integer
  subquestion_id integer
  
  //Antwortauswahlliste
  label_id integer

  //Settings
  scale_size integer [default: 6, note: 'Min.2 Max. 11']
  scale_style integer
  scale_start integer [default: 1, note: '-5 < start < 1']
  scale_label_visible boolean [default: false, Note: 'Über Skala, freezed table header, damit Antworten darunter gescrollt werden können']
  scale_label_overwrite boolean
  scale_label_id integer
  //Generell:
  Note: 'Leerzeichen am Anfang oder am Ende von String werden automatisch gelöscht.'
}
Ref: questionnaire_rating.project_id > projects.id
Ref: questionnaire_rating.id > form_templates.form_types_id
Ref: questionnaire_rating.question_id > qc.id
Ref: questionnaire_rating.subquestion_id > qc.id
Ref: questionnaire_rating.label_id > qc.id
Ref: questionnaire_rating.scale_style > graphic_style.id
Ref: questionnaire_rating.scale_label_id > qc.id


Table questionnaire_likert{
  //Häufigkeiten
  id integer
  project_id integer
  
  question_id integer
  subquestion_id integer
  
  //Antwortauswahlliste
  label_id integer

  //Settings
  scale_size integer [default: 6, note: 'Min.2 Max. 11']
  scale_style_id integer
  scale_label_id integer
  //Generell:
  Note: 'Leerzeichen am Anfang oder am Ende von String werden automatisch gelöscht.'
}
Ref: questionnaire_likert.project_id > projects.id
Ref: questionnaire_likert.scale_style_id > graphic_style.id
Ref: questionnaire_likert.id > form_templates.form_types_id
Ref: questionnaire_likert.label_id > qc.id
Ref: questionnaire_likert.scale_label_id > qc.id


Table questionnaire_comment{
  id integer
  project_id integer
  answer_method_id integer
}
Ref: questionnaire_comment.project_id > projects.id
Ref: questionnaire_text.id < questionnaire_comment.answer_method_id
Ref: questionnaire_voicerecord.id < questionnaire_comment.answer_method_id
Ref: form_templates.form_types_id < questionnaire_comment.id

Table questionnaire_text{
  id integer
  project_id integer
  
  question_id integer [Note: 'Beispiel: Excel, "First Input: English" -Trennung- "Second Input: German" -Trennung- "Modus: Normal (1), Overwrite First_Language with Second_Language (2) , Overwrite Second_Language with First_Language with English (3)"']
  subquestion_id integer

  answer_style_id integer
  answer_text_length_min integer
  answer_text_length_max integer
}
Ref: questionnaire_text.project_id > projects.id
Ref: questionnaire_text.id > form_templates.form_types_id
Ref: questionnaire_text.answer_style_id > answer_style.id
Ref: questionnaire_text.question_id > qc.id
Ref: questionnaire_text.subquestion_id > qc.id

Table questionnaire_voicerecord{
  id integer
  project_id integer
  
  question_id integer
  subquestion_id integer
  
  answer_time_min integer
  answer_time_max integer
}
Ref: questionnaire_voicerecord.project_id > projects.id
Ref: questionnaire_voicerecord.id > form_templates.form_types_id
Ref: questionnaire_voicerecord.question_id > qc.id
Ref: questionnaire_voicerecord.subquestion_id > qc.id

Table questionnaire_abtest{
  id integer
  name varchar
  project_id integer
  
  question_id integer
  subquestion_id integer
  
  model_groupes_id integer
}
Ref: questionnaire_abtest.project_id > projects.id
Ref: questionnaire_abtest.id > form_templates.form_types_id
Ref: questionnaire_abtest.question_id > qc.id
Ref: questionnaire_abtest.subquestion_id > qc.id
Ref: questionnaire_abtest.model_groupes_id > model_groupes.id


//Für Später
Table questionnaire_camera_path{
  id integer
  name varchar
  project_id integer
  
  question_id integer
  subquestion_id integer
  
  camera_path_id integer [note: 'List of Points - like wayfinding points, without rotation']
  movement_speed1_id integer
  
  Note: 'Erfassung des Empfindens während einer Kamerafahrt. Controller Joystick mit Positiv, Neutral und Negativ Rating versehen (überschreibung der Scrollfunktion) Sichtbarkeit im UI, welche Empfindung gerade aktiv ist.'
}
Ref: questionnaire_camera_path.project_id > projects.id
Ref: questionnaire_camera_path.id > form_templates.form_types_id

Ref: questionnaire_camera_path.question_id > qc.id
Ref: questionnaire_camera_path.subquestion_id > qc.id
Ref: questionnaire_camera_path.camera_path_id > camera_path.id
Ref: questionnaire_camera_path.movement_speed1_id > movement_speed.id

Table questionnaire_wayfindung_multidestination{
  id integer
  project_id integer
  name varchar
  
  question_id integer
  subquestion_id integer
  
  checkpoints_evalaluation_id varchar [note: 'Liste von möglichen zu Erreichenden Zielen (checkpoints). Nur ein Checkpoint muss erreicht werden']

  Note: 'Tracking muss im Behaviour aktiviert sein.'
}
Ref: questionnaire_wayfindung_multidestination.id > form_templates.form_types_id
Ref: questionnaire_wayfindung_multidestination.project_id > projects.id
Ref: questionnaire_wayfindung_multidestination.question_id > qc.id
Ref: questionnaire_wayfindung_multidestination.subquestion_id > qc.id
Ref: questionnaire_wayfindung_multidestination.checkpoints_evalaluation_id > ch_evaluation_groups.id

Table ch_evaluation_groups{
  id integer
  groups_evaluation_id integer
  project_id integer

  checkpoints_evalaluation_id integer
}
Ref: ch_evaluation_groups.project_id > projects.id
Ref: ch_evaluation_groups.checkpoints_evalaluation_id > checkpoints.id
Ref: ch_evaluation_groups.groups_evaluation_id > groups_evaluation.id

Table groups_evaluation{
  id integer
  name varchar
  project_id integer
}
Ref: groups_evaluation.project_id > projects.id

Table questionnaire_annotation{
  id integer
  name varchar
  project_id integer
  
  question_id integer
  subquestion_id integer
  
  annotation_template_id integer
}
Ref: questionnaire_annotation.project_id > projects.id
Ref: questionnaire_annotation.id < form_templates.form_types_id
Ref: questionnaire_annotation.question_id > qc.id
Ref: questionnaire_annotation.subquestion_id > qc.id
Ref: questionnaire_annotation.annotation_template_id > annotation_templates.id

Table annotation_templates{
  id integer
  name varchar
  project_id integer
  position integer
  answer_requiered boolean
  
  form_types_id integer
}
Ref: annotation_templates.project_id > projects.id
Ref: annotation_templates.form_types_id > text.id
Ref: annotation_templates.form_types_id > Break.id
Ref: annotation_templates.form_types_id > questionnaire_likert.id
Ref: annotation_templates.form_types_id > questionnaire_rating.id
Ref: annotation_templates.form_types_id > questionnaire_choice.id
Ref: annotation_templates.form_types_id > questionnaire_comment.id

Table questionnaire_pointing{
  id integer
  name varchar
  project_id integer
  
  question_id integer
  subquestion_id integer
  
  pointing_count integer [note: 'minimum 1, maximum 11']
}
Ref: questionnaire_pointing.project_id > projects.id
Ref: questionnaire_pointing.id < form_templates.form_types_id
Ref: questionnaire_pointing.question_id > qc.id
Ref: questionnaire_pointing.subquestion_id > qc.id

Table questionnaire_placing{
  id integer
  name varchar
  project_id integer
  
  question_id integer
  subquestion_id integer
  
  placing_count integer [note: 'minimum 1, maximum 11']
}
Ref: questionnaire_placing.project_id > projects.id
Ref: questionnaire_placing.id < form_templates.form_types_id
Ref: questionnaire_placing.question_id > qc.id
Ref: questionnaire_placing.subquestion_id > qc.id

// graphic style for answer UI
Table graphic_style{
  id integer
  style style_type [note: 'box-tick, point, button -> kompatible in VR']
}

Table answer_style{
  id integer
  style answer_style [note: 'Varchar, Double, integer, Date'] 
}

//
//VR User Information
//

Table info_templates{
  id integer
  name varchar
  project_id integer
  position integer

  form_types_id integer
}
Ref: info_templates.project_id > projects.id

Table info_fields{
  id integer [pk, increment]
  project_id integer
  name varchar
  info_template_id integer

  position integer
}
Ref: info_fields.info_template_id > info_templates.id
Ref: info_fields.project_id > projects.id


Table maintenance{
  id integer
  name varchar
  project_id integer
  
  Note: 'Wartung der Checkpoint-Typen (Evaluation, Gates, Information) in VR/Desktop (Setzen, Löschen, Ändern)'
}
Ref: maintenance.project_id > projects.id
Ref: maintenance.id < form_templates.form_types_id

Table history{
  id integer
  project_id integer
  history jsonb [Note: 'shnapshot of project as jsonb']
  created_at timestamp
  
  Note: '''
  Snapshot wird generiert, wenn Evaluation von deaktiv auf aktiv geschaltet wird.
  Wenn Evaluation aktiv, dann Bearbeitung von Projekt inaktiv. 
  '''
}
Ref: history.project_id > projects.id
//Pivot Check EVB-User + Participant Code + Session + Project
//Evaluation Online/Offline ... wenn Online, View von Study (Notiz neben Button, dass Studie Online ist), wenn Offline, Edit (Notiz neben Button, dass Studie öffline ist) von Study)
